<?xml version="1.0" standalone="no"?>
<!DOCTYPE svg PUBLIC "-//W3C//DTD SVG 20010904//EN"
 "http://www.w3.org/TR/2001/REC-SVG-20010904/DTD/svg10.dtd">
<svg version="1.0" xmlns="http://www.w3.org/2000/svg"
 width="64.000000pt" height="64.000000pt" viewBox="0 0 64.000000 64.000000"
 preserveAspectRatio="xMidYMid meet">

<g transform="translate(0.000000,64.000000) scale(0.100000,-0.100000)"
fill="#000000" stroke="none">
<path d="M355 520 c-10 -11 -29 -20 -42 -20 -62 0 -154 -77 -168 -141 -4 -16
-16 -36 -28 -44 -20 -14 -16 -15 51 -15 54 0 72 -3 72 -13 0 -26 40 -52 80
-52 40 0 80 26 80 52 0 10 19 13 75 13 86 0 86 0 60 87 -17 56 -70 118 -121
139 -41 17 -37 18 -59 -6z m-1 -166 c31 -30 9 -84 -34 -84 -40 0 -66 60 -38
88 17 17 54 15 72 -4z"/>
<path d="M304 329 c-10 -17 13 -36 27 -22 12 12 4 33 -11 33 -5 0 -12 -5 -16
-11z"/>
</g>
</svg>
